<?xml version="1.0" encoding="UTF-8"?>
<svg xmlns="http://www.w3.org/2000/svg" xmlns:xlink="http://www.w3.org/1999/xlink" viewBox="0 0 30 30" width="30px" height="30px">
<g id="surface12646184">
<path style=" stroke:none;fill-rule:nonzero;fill:rgb(90.980393%,83.137256%,48.235294%);fill-opacity:1;" d="M 22.875 19.875 C 21.632812 19.875 20.625 18.867188 20.625 17.625 C 20.625 16.382812 21.632812 15.375 22.875 15.375 C 24.742188 15.375 25.125 15.925781 25.125 16.75 C 25.125 18.113281 24.035156 19.875 22.875 19.875 Z M 22.875 19.875 "/>
<path style=" stroke:none;fill-rule:nonzero;fill:rgb(72.941178%,60.784316%,28.235295%);fill-opacity:1;" d="M 22.875 15.75 C 24.75 15.75 24.75 16.304688 24.75 16.75 C 24.75 17.886719 23.78125 19.5 22.875 19.5 C 21.839844 19.5 21 18.660156 21 17.625 C 21 16.589844 21.839844 15.75 22.875 15.75 M 22.875 15 C 21.425781 15 20.25 16.175781 20.25 17.625 C 20.25 19.074219 21.425781 20.25 22.875 20.25 C 24.324219 20.25 25.5 18.199219 25.5 16.75 C 25.5 15.300781 24.324219 15 22.875 15 Z M 22.875 15 "/>
<path style=" stroke:none;fill-rule:nonzero;fill:rgb(90.980393%,83.137256%,48.235294%);fill-opacity:1;" d="M 7.125 19.875 C 5.964844 19.875 4.875 18.113281 4.875 16.75 C 4.875 15.925781 5.257812 15.375 7.125 15.375 C 8.367188 15.375 9.375 16.382812 9.375 17.625 C 9.375 18.867188 8.367188 19.875 7.125 19.875 Z M 7.125 19.875 "/>
<path style=" stroke:none;fill-rule:nonzero;fill:rgb(72.941178%,60.784316%,28.235295%);fill-opacity:1;" d="M 7.125 15.75 C 8.160156 15.75 9 16.589844 9 17.625 C 9 18.660156 8.160156 19.5 7.125 19.5 C 6.21875 19.5 5.25 17.886719 5.25 16.75 C 5.25 16.304688 5.25 15.75 7.125 15.75 M 7.125 15 C 5.675781 15 4.5 15.300781 4.5 16.75 C 4.5 18.199219 5.675781 20.25 7.125 20.25 C 8.574219 20.25 9.75 19.074219 9.75 17.625 C 9.75 16.175781 8.574219 15 7.125 15 Z M 7.125 15 "/>
<path style=" stroke:none;fill-rule:nonzero;fill:rgb(100%,93.333334%,63.921571%);fill-opacity:1;" d="M 15 28.875 C 14.050781 28.875 13.164062 28.480469 12.511719 27.761719 L 12.449219 27.695312 L 12.363281 27.664062 C 9.230469 26.546875 7.125 23.566406 7.125 20.25 L 7.125 9.285156 C 7.125 7.324219 8.71875 5.730469 10.679688 5.730469 L 19.320312 5.730469 C 21.28125 5.730469 22.875 7.324219 22.875 9.285156 L 22.875 20.25 C 22.875 23.566406 20.769531 26.546875 17.636719 27.664062 L 17.550781 27.695312 L 17.488281 27.761719 C 16.835938 28.480469 15.949219 28.875 15 28.875 Z M 15 28.875 "/>
<path style=" stroke:none;fill-rule:nonzero;fill:rgb(72.941178%,60.784316%,28.235295%);fill-opacity:1;" d="M 19.320312 6.105469 C 21.074219 6.105469 22.5 7.53125 22.5 9.285156 L 22.5 20.25 C 22.5 23.410156 20.496094 26.246094 17.511719 27.308594 L 17.335938 27.371094 L 17.210938 27.511719 C 16.628906 28.148438 15.84375 28.5 15 28.5 C 14.15625 28.5 13.371094 28.148438 12.789062 27.511719 L 12.664062 27.371094 L 12.488281 27.308594 C 9.503906 26.246094 7.5 23.410156 7.5 20.25 L 7.5 9.285156 C 7.5 7.53125 8.925781 6.105469 10.679688 6.105469 L 19.320312 6.105469 M 19.320312 5.355469 L 10.679688 5.355469 C 8.511719 5.355469 6.75 7.113281 6.75 9.285156 L 6.75 20.25 C 6.75 23.835938 9.042969 26.878906 12.234375 28.015625 C 12.921875 28.769531 13.902344 29.25 15 29.25 C 16.097656 29.25 17.078125 28.769531 17.765625 28.015625 C 20.957031 26.878906 23.25 23.835938 23.25 20.25 L 23.25 9.285156 C 23.25 7.113281 21.488281 5.355469 19.320312 5.355469 Z M 19.320312 5.355469 "/>
<path style=" stroke:none;fill-rule:nonzero;fill:rgb(69.01961%,75.686276%,83.137256%);fill-opacity:1;" d="M 22.875 18.375 L 22.875 13.359375 C 22.875 9.105469 19.660156 7.910156 19.625 7.898438 L 19.382812 7.8125 L 19.214844 8.007812 C 19.191406 8.035156 16.683594 10.875 11.945312 10.875 C 8.835938 10.875 7.125 12.453125 7.125 15.3125 L 7.125 18.375 L 7.003906 18.375 C 6.578125 17.324219 4.875 12.878906 4.875 9.65625 C 4.875 4.316406 9.640625 1.125 14.25 1.125 C 17.300781 1.125 18.914062 2.65625 19.605469 3.566406 L 19.71875 3.714844 L 19.902344 3.714844 C 21.257812 3.714844 25.125 4.855469 25.125 9.917969 C 25.125 12.457031 23.40625 17.25 22.988281 18.375 Z M 22.875 18.375 "/>
<path style=" stroke:none;fill-rule:nonzero;fill:rgb(40.000001%,47.450981%,56.078434%);fill-opacity:1;" d="M 14.25 1.5 C 17.140625 1.5 18.660156 2.9375 19.304688 3.792969 L 19.53125 4.089844 L 19.902344 4.089844 C 21.160156 4.089844 24.75 5.164062 24.75 9.921875 C 24.75 11.675781 23.894531 14.570312 23.25 16.503906 L 23.25 13.359375 C 23.25 8.847656 19.894531 7.59375 19.753906 7.542969 L 19.269531 7.375 L 18.933594 7.761719 C 18.835938 7.871094 16.496094 10.5 11.945312 10.5 C 8.597656 10.5 6.75 12.210938 6.75 15.3125 L 6.75 16.628906 C 6.109375 14.792969 5.25 11.914062 5.25 9.65625 C 5.25 5.703125 8.40625 1.5 14.25 1.5 M 14.25 0.75 C 8.003906 0.75 4.5 5.347656 4.5 9.65625 C 4.5 13.4375 6.75 18.75 6.75 18.75 L 7.5 18.75 C 7.5 18.75 7.5 16.355469 7.5 15.3125 C 7.5 12.117188 9.667969 11.25 11.945312 11.25 C 16.929688 11.25 19.5 8.25 19.5 8.25 C 19.5 8.25 22.5 9.324219 22.5 13.359375 C 22.5 14.503906 22.5 18.75 22.5 18.75 L 23.25 18.75 C 23.25 18.75 25.5 12.894531 25.5 9.917969 C 25.5 4.683594 21.480469 3.339844 19.902344 3.339844 C 19.503906 2.8125 17.84375 0.75 14.25 0.75 Z M 14.25 0.75 "/>
<path style=" stroke:none;fill-rule:nonzero;fill:rgb(21.176471%,25.098041%,30.19608%);fill-opacity:1;" d="M 19.125 17.25 C 18.503906 17.25 18 17.753906 18 18.375 C 18 18.996094 18.503906 19.5 19.125 19.5 C 19.746094 19.5 20.25 18.996094 20.25 18.375 C 20.25 17.753906 19.746094 17.25 19.125 17.25 Z M 10.875 17.25 C 10.253906 17.25 9.75 17.753906 9.75 18.375 C 9.75 18.996094 10.253906 19.5 10.875 19.5 C 11.496094 19.5 12 18.996094 12 18.375 C 12 17.753906 11.496094 17.25 10.875 17.25 Z M 10.875 17.25 "/>
</g>
</svg>
